<svg id="visual" viewBox="0 0 685 492" width="685" height="492" xmlns="http://www.w3.org/2000/svg" xmlns:xlink="http://www.w3.org/1999/xlink" version="1.1"><rect x="0" y="0" width="685" height="492" fill="#140021"></rect><path d="M0 370L38 370L38 341L76 341L76 353L114 353L114 345L152 345L152 361L190 361L190 368L228 368L228 338L266 338L266 336L304 336L304 351L343 351L343 348L381 348L381 339L419 339L419 332L457 332L457 351L495 351L495 370L533 370L533 369L571 369L571 380L609 380L609 348L647 348L647 352L685 352L685 339L685 493L685 493L647 493L647 493L609 493L609 493L571 493L571 493L533 493L533 493L495 493L495 493L457 493L457 493L419 493L419 493L381 493L381 493L343 493L343 493L304 493L304 493L266 493L266 493L228 493L228 493L190 493L190 493L152 493L152 493L114 493L114 493L76 493L76 493L38 493L38 493L0 493Z" fill="#0064ff"></path><path d="M0 355L38 355L38 371L76 371L76 368L114 368L114 372L152 372L152 389L190 389L190 379L228 379L228 380L266 380L266 374L304 374L304 389L343 389L343 391L381 391L381 389L419 389L419 372L457 372L457 358L495 358L495 355L533 355L533 386L571 386L571 362L609 362L609 384L647 384L647 362L685 362L685 378L685 493L685 493L647 493L647 493L609 493L609 493L571 493L571 493L533 493L533 493L495 493L495 493L457 493L457 493L419 493L419 493L381 493L381 493L343 493L343 493L304 493L304 493L266 493L266 493L228 493L228 493L190 493L190 493L152 493L152 493L114 493L114 493L76 493L76 493L38 493L38 493L0 493Z" fill="#0855ec"></path><path d="M0 378L38 378L38 411L76 411L76 388L114 388L114 401L152 401L152 383L190 383L190 412L228 412L228 389L266 389L266 395L304 395L304 388L343 388L343 378L381 378L381 383L419 383L419 392L457 392L457 383L495 383L495 393L533 393L533 373L571 373L571 398L609 398L609 388L647 388L647 386L685 386L685 380L685 493L685 493L647 493L647 493L609 493L609 493L571 493L571 493L533 493L533 493L495 493L495 493L457 493L457 493L419 493L419 493L381 493L381 493L343 493L343 493L304 493L304 493L266 493L266 493L228 493L228 493L190 493L190 493L152 493L152 493L114 493L114 493L76 493L76 493L38 493L38 493L0 493Z" fill="#0c45d9"></path><path d="M0 396L38 396L38 416L76 416L76 424L114 424L114 416L152 416L152 408L190 408L190 400L228 400L228 427L266 427L266 395L304 395L304 410L343 410L343 401L381 401L381 409L419 409L419 425L457 425L457 395L495 395L495 427L533 427L533 398L571 398L571 425L609 425L609 404L647 404L647 419L685 419L685 410L685 493L685 493L647 493L647 493L609 493L609 493L571 493L571 493L533 493L533 493L495 493L495 493L457 493L457 493L419 493L419 493L381 493L381 493L343 493L343 493L304 493L304 493L266 493L266 493L228 493L228 493L190 493L190 493L152 493L152 493L114 493L114 493L76 493L76 493L38 493L38 493L0 493Z" fill="#0c36c6"></path><path d="M0 421L38 421L38 443L76 443L76 433L114 433L114 432L152 432L152 423L190 423L190 425L228 425L228 425L266 425L266 425L304 425L304 418L343 418L343 442L381 442L381 422L419 422L419 432L457 432L457 431L495 431L495 441L533 441L533 433L571 433L571 432L609 432L609 419L647 419L647 430L685 430L685 422L685 493L685 493L647 493L647 493L609 493L609 493L571 493L571 493L533 493L533 493L495 493L495 493L457 493L457 493L419 493L419 493L381 493L381 493L343 493L343 493L304 493L304 493L266 493L266 493L228 493L228 493L190 493L190 493L152 493L152 493L114 493L114 493L76 493L76 493L38 493L38 493L0 493Z" fill="#0a26b3"></path><path d="M0 444L38 444L38 438L76 438L76 441L114 441L114 448L152 448L152 447L190 447L190 451L228 451L228 445L266 445L266 455L304 455L304 440L343 440L343 447L381 447L381 459L419 459L419 457L457 457L457 449L495 449L495 456L533 456L533 437L571 437L571 443L609 443L609 457L647 457L647 452L685 452L685 457L685 493L685 493L647 493L647 493L609 493L609 493L571 493L571 493L533 493L533 493L495 493L495 493L457 493L457 493L419 493L419 493L381 493L381 493L343 493L343 493L304 493L304 493L266 493L266 493L228 493L228 493L190 493L190 493L152 493L152 493L114 493L114 493L76 493L76 493L38 493L38 493L0 493Z" fill="#0616a1"></path><path d="M0 460L38 460L38 471L76 471L76 463L114 463L114 472L152 472L152 468L190 468L190 467L228 467L228 473L266 473L266 458L304 458L304 473L343 473L343 476L381 476L381 465L419 465L419 457L457 457L457 467L495 467L495 474L533 474L533 464L571 464L571 457L609 457L609 474L647 474L647 469L685 469L685 476L685 493L685 493L647 493L647 493L609 493L609 493L571 493L571 493L533 493L533 493L495 493L495 493L457 493L457 493L419 493L419 493L381 493L381 493L343 493L343 493L304 493L304 493L266 493L266 493L228 493L228 493L190 493L190 493L152 493L152 493L114 493L114 493L76 493L76 493L38 493L38 493L0 493Z" fill="#00008f"></path></svg>